<svg width="103" height="103" xmlns="http://www.w3.org/2000/svg" xmlns:xlink="http://www.w3.org/1999/xlink" overflow="hidden"><defs><clipPath id="clip0"><rect x="461" y="417" width="103" height="103"/></clipPath><clipPath id="clip1"><rect x="471.325" y="427.93" width="73.0259" height="73.7407"/></clipPath></defs><g clip-path="url(#clip0)" transform="translate(-461 -417)"><g clip-path="url(#clip1)"><path d="M166.858 152.941C167.359 159.74 167.762 160.144 174.558 160.644 167.762 161.141 167.359 161.545 166.858 168.344 166.357 161.545 165.954 161.141 159.158 160.644 165.954 160.144 166.357 159.74 166.858 152.941ZM162.17 132.685C170.595 139.958 171.531 139.958 179.96 132.685 172.684 141.111 172.684 142.046 179.96 150.476 171.531 143.199 170.595 143.199 162.17 150.476 169.443 142.046 169.443 141.111 162.17 132.685ZM189.737 127.772C190.082 132.437 190.358 132.716 195.027 133.058 190.358 133.403 190.082 133.679 189.737 138.344 189.395 133.679 189.12 133.403 184.451 133.058 189.12 132.716 189.395 132.437 189.737 127.772ZM204.136 126.542 199.199 144.802C197.837 149.836 200.813 155.021 205.851 156.383 205.564 157.443 206.193 158.533 207.248 158.817 208.626 159.189 209.441 160.61 209.068 161.987L208.905 162.593C208.626 163.617 207.772 164.328 206.786 164.471 205.18 172.703 200.134 189.791 185.681 192.694 185.681 192.694 194.697 188.662 197.619 175.167 197.619 175.167 194.386 182.755 185.351 185.852 185.351 185.852 193.8 179.122 195.574 172.055 195.574 172.055 186.034 185.914 175.012 191.289 175.012 191.289 188.056 179.487 189.811 170.852 189.811 170.852 179.588 186.329 168.729 188.111 168.729 188.111 178.975 182.118 182.258 170.475 173.894 180.477 165.026 180.372 165.026 180.372 174.147 177.042 179.646 165.189 179.646 165.189 173.576 175.676 159.158 177.166 159.158 177.166 170.929 172.684 177.026 162.783 179.658 157.132 178.885 156.507 178.509 155.467 178.785 154.45L178.948 153.841C179.32 152.463 180.741 151.652 182.114 152.025L193.327 155.052 184.082 151.454C184.296 151.225 184.462 150.95 184.552 150.624 189.585 151.986 194.771 149.009 196.133 143.971L201.244 125.075C196.665 123.006 191.58 121.853 186.228 121.853 166.062 121.853 149.715 138.2 149.715 158.366 149.715 178.532 166.062 194.879 186.228 194.879 206.394 194.879 222.741 178.532 222.741 158.366 222.741 144.709 215.239 132.806 204.136 126.542" fill="#00786F" transform="matrix(1 0 0 1.00979 321.61 304.884)"/></g></g></svg>