<svg width="220" height="149" xmlns="http://www.w3.org/2000/svg" xmlns:xlink="http://www.w3.org/1999/xlink" overflow="hidden"><defs><clipPath id="clip0"><rect x="767" y="229" width="220" height="149"/></clipPath><clipPath id="clip1"><rect x="839.361" y="240.155" width="73.4996" height="73.584"/></clipPath></defs><g clip-path="url(#clip0)" transform="translate(-767 -229)"><g clip-path="url(#clip1)"><path d="M167.94 153.933C168.444 160.776 168.851 161.183 175.69 161.687 168.851 162.187 168.444 162.593 167.94 169.437 167.437 162.593 167.03 162.187 160.191 161.687 167.03 161.183 167.437 160.776 167.94 153.933ZM163.222 133.546C171.702 140.866 172.644 140.866 181.128 133.546 173.804 142.027 173.804 142.968 181.128 151.452 172.644 144.128 171.702 144.128 163.222 151.452 170.542 142.968 170.542 142.027 163.222 133.546ZM190.968 128.601C191.315 133.296 191.593 133.577 196.292 133.921 191.593 134.269 191.315 134.546 190.968 139.241 190.624 134.546 190.347 134.269 185.647 133.921 190.347 133.577 190.624 133.296 190.968 128.601ZM205.46 127.363 200.491 145.741C199.12 150.808 202.116 156.026 207.186 157.398 206.897 158.464 207.53 159.562 208.593 159.847 209.979 160.222 210.8 161.651 210.425 163.038L210.261 163.648C209.979 164.679 209.12 165.394 208.128 165.538 206.511 173.823 201.432 191.022 186.886 193.944 186.886 193.944 195.96 189.886 198.901 176.304 198.901 176.304 195.647 183.94 186.554 187.058 186.554 187.058 195.057 180.284 196.843 173.171 196.843 173.171 187.241 187.12 176.147 192.53 176.147 192.53 189.276 180.651 191.042 171.96 191.042 171.96 180.753 187.538 169.823 189.331 169.823 189.331 180.136 183.3 183.44 171.581 175.022 181.647 166.097 181.542 166.097 181.542 175.276 178.19 180.811 166.261 180.811 166.261 174.702 176.815 160.191 178.315 160.191 178.315 172.038 173.804 178.175 163.839 180.823 158.151 180.046 157.523 179.667 156.476 179.944 155.452L180.108 154.839C180.483 153.452 181.913 152.636 183.296 153.011L194.581 156.058 185.276 152.437C185.491 152.206 185.659 151.929 185.749 151.601 190.815 152.972 196.034 149.976 197.405 144.905L202.55 125.886C197.94 123.804 192.823 122.644 187.436 122.644 167.14 122.644 150.687 139.097 150.687 159.394 150.687 179.69 167.14 196.143 187.436 196.143 207.733 196.143 224.186 179.69 224.186 159.394 224.186 145.648 216.635 133.667 205.46 127.363" fill="#00786F" transform="matrix(1 0 0 1.00115 688.674 117.37)"/></g><path d="M15.5937-2.84373C14.1015-1.42577 12.332-0.718746 10.2812-0.718746 9.13276-0.718746 8.11714-0.914057 7.23433-1.31249 6.35934-1.70702 5.62497-2.23436 5.03122-2.89061 4.44529-3.55467 4.00388-4.32029 3.7031-5.18747 3.39842-6.05075 3.24998-6.95309 3.24998-7.89058 3.24998-8.89057 3.40623-9.80073 3.71873-10.6249 4.03904-11.457 4.48826-12.1757 5.06247-12.7812 5.63278-13.3827 6.31246-13.8515 7.09371-14.1874 7.87496-14.5312 8.72651-14.703 9.6562-14.703 10.289-14.703 10.8671-14.6249 11.3906-14.4687 11.9101-14.3202 12.3671-14.1288 12.7656-13.8905 13.1718-13.6601 13.4999-13.3945 13.7499-13.0937 14.0077-12.8007 14.1913-12.4999 14.2968-12.1874L15.9218-12.1874C15.703-12.6874 15.4218-13.1484 15.078-13.578 14.7343-14.0038 14.3046-14.3671 13.7968-14.6718 13.2851-14.9843 12.6796-15.2226 11.9843-15.3905 11.2968-15.5663 10.5156-15.6562 9.64057-15.6562 8.35933-15.6562 7.19137-15.4726 6.14059-15.1093 5.09763-14.7421 4.2031-14.2187 3.45311-13.5312 2.70311-12.8515 2.11718-12.0351 1.70312-11.0781 1.29687-10.1171 1.09374-9.04682 1.09374-7.85933 1.09374-6.82809 1.2578-5.82028 1.59374-4.84372 1.92577-3.87498 2.43749-3.0078 3.12498-2.24999 3.81248-1.49999 4.69138-0.89062 5.76559-0.421873 6.8359 0.035156 8.11324 0.265624 9.5937 0.265624 10.5312 0.265624 11.3671 0.17578 12.1093 0 12.8476-0.17578 13.4921-0.390623 14.0468-0.640621 14.5976-0.898433 15.0546-1.17577 15.4218-1.46874 15.7851-1.7578 16.0663-2.01952 16.2655-2.24999Z" fill="#00827B" transform="matrix(1 0 0 1.00115 794.693 342.89)"/><path d="M2.64061 0 2.64061-15.4062 4.6406-15.4062 4.6406-1.20312 12.5781-1.20312 12.5781 0Z" fill="#00827B" transform="matrix(1 0 0 1.00115 816.425 342.89)"/><path d="M2.64061-15.4062 2.64061 0 12.5781 0 12.5781-1.20312 4.6406-1.20312 4.6406-7.65621 11.4687-7.65621 11.4687-8.67183 4.6406-8.67183 4.6406-14.1874 12.5781-14.1874 12.5781-15.4062Z" fill="#00827B" transform="matrix(1 0 0 1.00115 834.705 342.89)"/><path d="M11.2031-4.53122 13.3124 0 15.4374 0 8.26558-15.4062 7.17183-15.4062 0.656246 0 1.67187 0 3.60935-4.53122ZM10.7343-5.51559 4.03123-5.51559 7.18746-12.9374 7.28121-12.9374Z" fill="#00827B" transform="matrix(1 0 0 1.00115 852.985 342.89)"/><path d="M15.0468-15.4062 15.0468-3.62498 14.953-3.62498 2.74998-15.6562 2.64061-15.6562 2.64061 0 3.65623 0 3.65623-11.7656 3.73435-11.7656 15.953 0.265624 16.0624 0.265624 16.0624-15.4062Z" fill="#00827B" transform="matrix(1 0 0 1.00115 874.124 342.89)"/><path d="M1.76561-15.4062 1.76561-5.93747C1.76561-5.332 1.8203-4.66404 1.93749-3.93748 2.05077-3.21873 2.32811-2.54686 2.76561-1.92186 3.21092-1.29687 3.86717-0.773434 4.73435-0.359373 5.59762 0.0546872 6.7734 0.265624 8.26558 0.265624 9.21089 0.265624 10.0468 0.117187 10.7656-0.171874 11.4921-0.460935 12.1015-0.863276 12.5937-1.37499 13.082-1.89452 13.453-2.49217 13.703-3.17186 13.953-3.85935 14.078-4.59372 14.078-5.37497L14.078-15.4062 13.1093-15.4062 13.1093-6.09372C13.1093-5.7695 13.0976-5.44137 13.0781-5.10935 13.0663-4.78513 13.0234-4.45701 12.9531-4.12498 12.8788-3.78904 12.7656-3.46092 12.6093-3.14061 12.4609-2.81639 12.2421-2.49217 11.9531-2.17186 11.4218-1.59765 10.8203-1.20702 10.1562-0.999994 9.49995-0.800776 8.81245-0.703121 8.0937-0.703121 7.47652-0.703121 6.92965-0.79687 6.45309-0.984369 5.97262-1.17968 5.52341-1.46874 5.10935-1.84374 4.7656-2.1328 4.50388-2.42577 4.3281-2.71873 4.14841-3.01951 4.01951-3.31248 3.93748-3.59373 3.85154-3.88279 3.80076-4.17576 3.78123-4.46872 3.76951-4.75779 3.7656-5.05075 3.7656-5.34372L3.7656-15.4062Z" fill="#00827B" transform="matrix(1 0 0 1.00115 910.595 342.89)"/><path d="M4.6406-6.42184C5.02341-6.31637 5.43747-6.23434 5.87497-6.17184 6.31246-6.10934 6.79684-6.07809 7.32808-6.07809 8.22261-6.07809 9.01557-6.19528 9.70307-6.43746 10.3906-6.68746 10.9609-7.03121 11.4218-7.46871 11.8906-7.90621 12.2382-8.4062 12.4687-8.9687 12.707-9.5312 12.8281-10.1328 12.8281-10.7812 12.8281-11.3945 12.7226-11.9843 12.5156-12.5468 12.3046-13.1093 11.9921-13.5976 11.5781-14.0155 11.1601-14.4413 10.6328-14.7812 9.99994-15.0312 9.37495-15.2812 8.63276-15.4062 7.78121-15.4062L2.64061-15.4062 2.64061 0 4.6406 0ZM4.6406-14.4374 6.95309-14.4374C7.56636-14.4374 8.10933-14.3202 8.57808-14.0937 9.04682-13.8749 9.42964-13.582 9.73432-13.2187 10.0468-12.8632 10.2812-12.4609 10.4374-12.0156 10.5937-11.5781 10.6718-11.1327 10.6718-10.6874 10.6718-10.2578 10.5976-9.82807 10.4531-9.39057 10.3163-8.96089 10.0937-8.57026 9.78119-8.2187 9.47651-7.87496 9.0937-7.59371 8.62495-7.37496 8.1562-7.15621 7.59371-7.04683 6.93746-7.04683 6.47653-7.04683 6.05465-7.06246 5.67184-7.09371 5.29684-7.13277 4.9531-7.2109 4.6406-7.32808Z" fill="#00827B" transform="matrix(1 0 0 1.00115 931.47 342.89)"/><path d="M2.64061-0.92187C2.64061-1.24218 2.75389-1.51952 2.98436-1.74999 3.22264-1.98827 3.50389-2.10936 3.8281-2.10936 4.14841-2.10936 4.42576-1.98827 4.65622-1.74999 4.8945-1.51952 5.0156-1.24218 5.0156-0.92187 5.0156-0.597653 4.8945-0.316404 4.65622-0.0781246 4.42576 0.148437 4.14841 0.265624 3.8281 0.265624 3.50389 0.265624 3.22264 0.148437 2.98436-0.0781246 2.75389-0.316404 2.64061-0.597653 2.64061-0.92187ZM4.29685-2.95311 3.24998-2.95311 2.57811-15.4062 4.99997-15.4062Z" fill="#00827B" transform="matrix(1 0 0 1.00115 949.991 342.89)"/></g></svg>