<?xml version="1.0" encoding="UTF-8"?><svg xmlns="http://www.w3.org/2000/svg" xmlns:xlink="http://www.w3.org/1999/xlink" width="30" zoomAndPan="magnify" viewBox="0 0 30 30.000001" height="30.000001" preserveAspectRatio="xMidYMid meet" version="1.0"><defs><clipPath id="clip-0"><path d="M 0.484375 0 L 29.515625 0 L 29.515625 29.03125 L 0.484375 29.03125 Z M 0.484375 0 " clip-rule="nonzero"/></clipPath></defs><g clip-path="url(#clip-0)"><path fill="rgb(0%, 51.368713%, 48.239136%)" d="M 15 0 C 6.996094 0 0.484375 6.511719 0.484375 14.515625 C 0.484375 22.519531 6.996094 29.03125 15 29.03125 C 23.003906 29.03125 29.515625 22.519531 29.515625 14.515625 C 29.515625 6.511719 23.003906 0 15 0 Z M 15 3.785156 C 17.4375 3.785156 19.417969 5.769531 19.417969 8.203125 C 19.417969 10.640625 17.4375 12.621094 15 12.621094 C 12.5625 12.621094 10.582031 10.640625 10.582031 8.203125 C 10.582031 5.769531 12.5625 3.785156 15 3.785156 Z M 22.574219 22.722656 L 7.425781 22.722656 C 7.078125 22.722656 6.796875 22.4375 6.796875 22.089844 C 6.796875 17.566406 10.476562 13.886719 15 13.886719 C 19.523438 13.886719 23.203125 17.566406 23.203125 22.089844 C 23.203125 22.4375 22.921875 22.722656 22.574219 22.722656 Z M 22.574219 22.722656 " fill-opacity="1" fill-rule="nonzero"/></g></svg>