<?xml version="1.0" encoding="UTF-8"?><svg xmlns="http://www.w3.org/2000/svg" xmlns:xlink="http://www.w3.org/1999/xlink" width="52.5" zoomAndPan="magnify" viewBox="0 0 52.5 53.25" height="53.25" preserveAspectRatio="xMidYMid meet" version="1.0"><defs><clipPath id="clip-0"><path d="M 0.117188 0 L 51.890625 0 L 51.890625 52.511719 L 0.117188 52.511719 Z M 0.117188 0 " clip-rule="nonzero"/></clipPath><clipPath id="clip-1"><path d="M 0.25 0 L 51.890625 0 L 51.890625 52.511719 L 0.25 52.511719 Z M 0.25 0 " clip-rule="nonzero"/></clipPath><clipPath id="clip-2"><path d="M 15.363281 5.351562 L 38.289062 5.351562 L 38.289062 23.691406 L 15.363281 23.691406 Z M 15.363281 5.351562 " clip-rule="nonzero"/></clipPath></defs><g clip-path="url(#clip-0)"><path fill="rgb(100%, 100%, 100%)" d="M 0.117188 0 L 52.382812 0 L 52.382812 59.730469 L 0.117188 59.730469 Z M 0.117188 0 " fill-opacity="1" fill-rule="nonzero"/><path fill="rgb(100%, 100%, 100%)" d="M 0.117188 0 L 52.382812 0 L 52.382812 53.011719 L 0.117188 53.011719 Z M 0.117188 0 " fill-opacity="1" fill-rule="nonzero"/><path fill="rgb(100%, 100%, 100%)" d="M 0.117188 0 L 52.382812 0 L 52.382812 53.011719 L 0.117188 53.011719 Z M 0.117188 0 " fill-opacity="1" fill-rule="nonzero"/></g><g clip-path="url(#clip-1)"><path fill="rgb(100%, 100%, 100%)" d="M 0.25 0 L 53.746094 0 L 53.746094 61.136719 L 0.25 61.136719 Z M 0.25 0 " fill-opacity="1" fill-rule="nonzero"/><path fill="rgb(100%, 100%, 100%)" d="M 0.25 0 L 53.746094 0 L 53.746094 54.261719 L 0.25 54.261719 Z M 0.25 0 " fill-opacity="1" fill-rule="nonzero"/><path fill="rgb(12.548828%, 12.548828%, 12.548828%)" d="M 0.25 0 L 53.746094 0 L 53.746094 54.261719 L 0.25 54.261719 Z M 0.25 0 " fill-opacity="1" fill-rule="nonzero"/></g><g clip-path="url(#clip-2)"><path fill="rgb(76.858521%, 64.309692%, 35.688782%)" d="M 32.6875 14.453125 C 32.753906 14.453125 32.796875 14.421875 32.816406 14.355469 C 32.839844 14.289062 32.816406 14.234375 32.761719 14.199219 C 31.75 13.46875 30.648438 12.945312 29.457031 12.625 C 29.367188 12.605469 29.3125 12.636719 29.289062 12.730469 C 29.261719 12.824219 29.300781 12.878906 29.386719 12.902344 C 30.546875 13.214844 31.621094 13.722656 32.605469 14.429688 C 32.628906 14.445312 32.65625 14.453125 32.6875 14.453125 Z M 29.441406 19.773438 L 30.351562 20.71875 C 30.414062 20.785156 30.480469 20.785156 30.546875 20.71875 L 31.457031 19.773438 C 31.523438 19.710938 31.523438 19.644531 31.457031 19.574219 L 30.546875 18.632812 C 30.480469 18.566406 30.414062 18.566406 30.351562 18.632812 L 29.441406 19.574219 C 29.375 19.644531 29.375 19.710938 29.441406 19.773438 Z M 30.445312 18.929688 L 31.171875 19.675781 L 30.445312 20.417969 L 29.726562 19.675781 Z M 30.332031 14.183594 C 30.164062 14.109375 29.992188 14.042969 29.816406 13.980469 C 29.726562 13.949219 29.671875 13.976562 29.640625 14.070312 C 29.613281 14.15625 29.640625 14.21875 29.726562 14.25 C 29.894531 14.308594 30.066406 14.375 30.230469 14.441406 C 30.316406 14.476562 30.375 14.453125 30.40625 14.367188 C 30.441406 14.277344 30.417969 14.21875 30.332031 14.183594 Z M 31.289062 14.652344 C 31.210938 14.609375 31.152344 14.628906 31.105469 14.710938 C 31.0625 14.789062 31.082031 14.851562 31.160156 14.902344 C 31.394531 15.035156 31.625 15.175781 31.851562 15.332031 C 31.925781 15.386719 31.988281 15.375 32.039062 15.292969 C 32.089844 15.21875 32.078125 15.148438 32.003906 15.097656 C 31.769531 14.9375 31.535156 14.789062 31.289062 14.652344 Z M 26.832031 15.957031 C 26.925781 15.957031 26.96875 15.910156 26.96875 15.816406 L 26.96875 11.84375 C 26.96875 11.75 26.925781 11.703125 26.832031 11.703125 C 26.746094 11.703125 26.695312 11.75 26.695312 11.84375 L 26.695312 15.816406 C 26.695312 15.910156 26.746094 15.957031 26.832031 15.957031 Z M 23.855469 13.980469 C 23.679688 14.042969 23.503906 14.109375 23.335938 14.183594 C 23.265625 14.210938 23.238281 14.261719 23.253906 14.335938 C 23.265625 14.414062 23.308594 14.453125 23.386719 14.453125 C 23.40625 14.453125 23.421875 14.449219 23.4375 14.441406 C 23.601562 14.375 23.769531 14.308594 23.941406 14.25 C 24.03125 14.21875 24.058594 14.15625 24.027344 14.070312 C 23.996094 13.976562 23.941406 13.949219 23.855469 13.980469 Z M 22.5625 14.710938 C 22.519531 14.625 22.453125 14.605469 22.375 14.652344 C 22.136719 14.789062 21.894531 14.941406 21.667969 15.097656 C 21.589844 15.148438 21.578125 15.21875 21.632812 15.292969 C 21.679688 15.375 21.742188 15.386719 21.820312 15.332031 C 22.039062 15.179688 22.269531 15.035156 22.507812 14.902344 C 22.585938 14.855469 22.605469 14.792969 22.5625 14.710938 Z M 24.382812 12.730469 C 24.359375 12.636719 24.300781 12.601562 24.214844 12.628906 C 23.019531 12.945312 21.917969 13.46875 20.902344 14.199219 C 20.832031 14.25 20.820312 14.316406 20.871094 14.394531 C 20.921875 14.46875 20.988281 14.480469 21.058594 14.429688 C 22.046875 13.722656 23.117188 13.214844 24.28125 12.902344 C 24.371094 12.878906 24.40625 12.824219 24.382812 12.730469 Z M 38.242188 9.527344 C 38.199219 9.484375 38.152344 9.476562 38.09375 9.503906 L 34.335938 11.296875 C 34.25 11.339844 34.230469 11.402344 34.273438 11.492188 L 35.082031 13.066406 L 34.335938 13.949219 C 32.496094 12.320312 30.367188 11.386719 27.953125 11.152344 L 27.683594 10.121094 L 29.488281 8.253906 C 29.550781 8.183594 29.550781 8.121094 29.488281 8.050781 L 26.929688 5.410156 C 26.863281 5.339844 26.800781 5.339844 26.738281 5.410156 L 24.183594 8.050781 C 24.113281 8.121094 24.113281 8.183594 24.183594 8.253906 L 25.984375 10.117188 L 25.71875 11.152344 C 23.300781 11.386719 21.175781 12.320312 19.332031 13.945312 L 18.589844 13.066406 L 19.394531 11.492188 C 19.441406 11.402344 19.421875 11.339844 19.332031 11.296875 L 15.574219 9.503906 C 15.519531 9.476562 15.46875 9.484375 15.421875 9.523438 C 15.378906 9.566406 15.367188 9.621094 15.386719 9.675781 L 19.421875 21.582031 C 19.160156 21.632812 18.953125 21.765625 18.792969 21.980469 C 18.632812 22.203125 18.5625 22.445312 18.589844 22.71875 C 18.617188 22.984375 18.722656 23.214844 18.921875 23.398438 C 19.113281 23.582031 19.339844 23.671875 19.605469 23.671875 L 34.296875 23.671875 C 34.558594 23.671875 34.777344 23.574219 34.953125 23.375 C 35.144531 23.152344 35.226562 22.898438 35.199219 22.605469 C 35.171875 22.347656 35.074219 22.117188 34.898438 21.925781 C 34.71875 21.734375 34.503906 21.617188 34.25 21.582031 L 38.285156 9.675781 C 38.304688 9.621094 38.292969 9.566406 38.242188 9.523438 Z M 34.15625 14.160156 L 31.34375 17.503906 L 29.597656 17.503906 L 28.027344 11.441406 C 30.34375 11.691406 32.386719 12.59375 34.15625 14.160156 Z M 33.804688 21.566406 L 27.09375 21.566406 L 29.566406 17.789062 L 31.332031 17.789062 Z M 24.46875 8.152344 L 26.832031 5.707031 L 29.199219 8.152344 L 26.832031 10.597656 Z M 26.203125 10.347656 L 26.738281 10.894531 C 26.800781 10.964844 26.863281 10.964844 26.933594 10.894531 L 27.460938 10.347656 L 29.34375 17.621094 L 26.832031 21.453125 L 24.320312 17.621094 Z M 26.578125 21.566406 L 19.863281 21.566406 L 22.335938 17.789062 L 24.101562 17.789062 Z M 25.640625 11.441406 L 24.070312 17.503906 L 22.328125 17.503906 L 19.511719 14.160156 C 21.277344 12.59375 23.320312 11.691406 25.640625 11.441406 Z M 15.75 9.898438 L 19.085938 11.492188 L 17.402344 14.773438 Z M 17.523438 15.136719 L 18.449219 13.335938 L 22.089844 17.65625 L 19.644531 21.394531 Z M 34.929688 22.628906 C 34.949219 22.84375 34.890625 23.027344 34.75 23.183594 C 34.628906 23.320312 34.476562 23.390625 34.296875 23.394531 L 19.605469 23.394531 C 19.394531 23.394531 19.214844 23.320312 19.066406 23.167969 C 18.921875 23.019531 18.847656 22.832031 18.847656 22.621094 C 18.847656 22.40625 18.921875 22.222656 19.066406 22.070312 C 19.214844 21.917969 19.394531 21.847656 19.605469 21.847656 L 34.066406 21.847656 C 34.285156 21.847656 34.476562 21.917969 34.640625 22.066406 C 34.808594 22.21875 34.902344 22.40625 34.929688 22.628906 Z M 34.027344 21.394531 L 31.574219 17.65625 L 35.21875 13.335938 L 36.144531 15.136719 Z M 36.265625 14.777344 L 34.582031 11.492188 L 37.914062 9.898438 Z M 26.832031 19.667969 C 26.925781 19.667969 26.96875 19.621094 26.96875 19.523438 L 26.96875 18.582031 C 26.96875 18.488281 26.925781 18.445312 26.832031 18.445312 C 26.746094 18.445312 26.695312 18.488281 26.695312 18.582031 L 26.695312 19.523438 C 26.695312 19.621094 26.746094 19.667969 26.832031 19.667969 Z M 23.121094 18.632812 L 22.210938 19.574219 C 22.144531 19.644531 22.144531 19.707031 22.210938 19.773438 L 23.121094 20.71875 C 23.1875 20.785156 23.25 20.785156 23.3125 20.71875 L 24.230469 19.773438 C 24.292969 19.707031 24.292969 19.644531 24.230469 19.574219 L 23.3125 18.632812 C 23.25 18.5625 23.1875 18.5625 23.121094 18.632812 Z M 23.21875 20.417969 L 22.5 19.675781 L 23.21875 18.929688 L 23.9375 19.675781 Z M 26.832031 17.589844 C 26.925781 17.589844 26.96875 17.539062 26.96875 17.449219 L 26.96875 16.953125 C 26.96875 16.855469 26.925781 16.8125 26.832031 16.8125 C 26.746094 16.8125 26.695312 16.855469 26.695312 16.953125 L 26.695312 17.449219 C 26.695312 17.539062 26.746094 17.589844 26.832031 17.589844 Z M 26.929688 9.324219 L 27.964844 8.253906 C 28.027344 8.183594 28.027344 8.121094 27.964844 8.050781 L 26.929688 6.980469 C 26.863281 6.921875 26.800781 6.921875 26.738281 6.980469 L 25.703125 8.050781 C 25.636719 8.121094 25.636719 8.183594 25.703125 8.253906 L 26.738281 9.324219 C 26.800781 9.386719 26.863281 9.386719 26.929688 9.324219 Z M 25.992188 8.152344 L 26.832031 7.28125 L 27.675781 8.152344 L 26.832031 9.023438 Z M 25.992188 8.152344 " fill-opacity="1" fill-rule="evenodd"/></g><path fill="rgb(76.858521%, 64.309692%, 35.688782%)" d="M 13.125 29.742188 C 13.09375 29.742188 13.066406 29.730469 13.046875 29.710938 C 13.035156 29.691406 13.03125 29.660156 13.03125 29.628906 C 13.039062 29.589844 13.050781 29.5625 13.0625 29.550781 C 13.082031 29.542969 13.113281 29.535156 13.160156 29.535156 C 13.253906 29.535156 13.324219 29.519531 13.367188 29.484375 C 13.40625 29.453125 13.433594 29.417969 13.445312 29.375 C 13.453125 29.320312 13.460938 29.253906 13.460938 29.167969 L 13.460938 27.292969 C 13.460938 27.210938 13.453125 27.148438 13.445312 27.101562 C 13.433594 27.050781 13.40625 27.007812 13.367188 26.976562 C 13.324219 26.941406 13.253906 26.925781 13.160156 26.925781 L 13.125 26.925781 C 13.09375 26.925781 13.070312 26.921875 13.0625 26.910156 C 13.050781 26.902344 13.039062 26.875 13.03125 26.832031 C 13.03125 26.800781 13.035156 26.773438 13.046875 26.75 C 13.066406 26.730469 13.09375 26.71875 13.125 26.71875 C 13.328125 26.730469 13.515625 26.734375 13.6875 26.734375 L 14.40625 26.734375 C 14.671875 26.734375 14.933594 26.796875 15.191406 26.910156 C 15.453125 27.03125 15.589844 27.257812 15.589844 27.597656 C 15.589844 27.78125 15.53125 27.945312 15.414062 28.09375 C 15.292969 28.246094 15.144531 28.363281 14.964844 28.445312 C 14.78125 28.523438 14.597656 28.558594 14.40625 28.558594 C 14.222656 28.558594 14.0625 28.539062 13.925781 28.496094 L 13.925781 29.167969 C 13.933594 29.253906 13.945312 29.320312 13.957031 29.375 C 13.964844 29.417969 13.996094 29.453125 14.039062 29.484375 C 14.078125 29.519531 14.148438 29.535156 14.246094 29.535156 L 14.261719 29.535156 C 14.292969 29.535156 14.3125 29.542969 14.328125 29.550781 C 14.347656 29.5625 14.359375 29.589844 14.359375 29.628906 C 14.359375 29.660156 14.351562 29.691406 14.34375 29.710938 C 14.332031 29.730469 14.308594 29.742188 14.277344 29.742188 C 14.074219 29.730469 13.878906 29.726562 13.6875 29.726562 C 13.515625 29.726562 13.328125 29.730469 13.125 29.742188 Z M 14.261719 28.351562 C 14.378906 28.351562 14.496094 28.332031 14.613281 28.285156 C 14.742188 28.246094 14.847656 28.171875 14.933594 28.0625 C 15.019531 27.945312 15.0625 27.789062 15.0625 27.597656 C 15.0625 27.324219 14.96875 27.144531 14.789062 27.054688 C 14.617188 26.960938 14.429688 26.910156 14.230469 26.910156 C 14.140625 26.910156 14.078125 26.921875 14.039062 26.941406 C 14.007812 26.953125 13.976562 26.988281 13.957031 27.039062 C 13.933594 27.09375 13.925781 27.175781 13.925781 27.277344 L 13.925781 28.300781 C 14 28.335938 14.109375 28.351562 14.261719 28.351562 Z M 14.261719 28.351562 " fill-opacity="1" fill-rule="nonzero"/><path fill="rgb(76.858521%, 64.309692%, 35.688782%)" d="M 16.9375 29.742188 C 16.90625 29.742188 16.878906 29.730469 16.871094 29.710938 C 16.859375 29.691406 16.855469 29.660156 16.855469 29.628906 C 16.855469 29.589844 16.859375 29.5625 16.871094 29.550781 C 16.890625 29.542969 16.925781 29.535156 16.96875 29.535156 C 17.0625 29.535156 17.132812 29.519531 17.175781 29.484375 C 17.214844 29.453125 17.246094 29.417969 17.257812 29.375 C 17.265625 29.320312 17.273438 29.253906 17.273438 29.167969 L 17.273438 27.292969 C 17.273438 27.210938 17.265625 27.148438 17.257812 27.101562 C 17.246094 27.0625 17.214844 27.023438 17.175781 26.992188 C 17.132812 26.949219 17.0625 26.925781 16.96875 26.925781 L 16.9375 26.925781 C 16.90625 26.925781 16.878906 26.921875 16.871094 26.910156 C 16.859375 26.902344 16.855469 26.875 16.855469 26.832031 C 16.855469 26.800781 16.859375 26.773438 16.871094 26.75 C 16.878906 26.730469 16.90625 26.71875 16.9375 26.71875 C 17.136719 26.730469 17.324219 26.734375 17.496094 26.734375 L 18.3125 26.734375 C 18.554688 26.746094 18.757812 26.792969 18.917969 26.863281 C 19.078125 26.925781 19.195312 27.019531 19.269531 27.136719 C 19.355469 27.253906 19.398438 27.375 19.398438 27.503906 C 19.398438 27.6875 19.328125 27.851562 19.191406 28 C 19.050781 28.136719 18.863281 28.238281 18.632812 28.300781 L 18.710938 28.429688 C 18.839844 28.644531 18.957031 28.832031 19.0625 28.988281 C 19.167969 29.140625 19.289062 29.277344 19.414062 29.40625 C 19.5 29.480469 19.59375 29.527344 19.703125 29.535156 C 19.710938 29.535156 19.726562 29.535156 19.75 29.535156 C 19.769531 29.535156 19.789062 29.546875 19.800781 29.566406 C 19.808594 29.578125 19.816406 29.597656 19.816406 29.628906 C 19.816406 29.660156 19.808594 29.691406 19.800781 29.710938 C 19.789062 29.730469 19.765625 29.742188 19.734375 29.742188 L 19.605469 29.742188 C 19.46875 29.730469 19.367188 29.726562 19.304688 29.726562 C 19.183594 29.707031 19.078125 29.660156 18.984375 29.597656 C 18.894531 29.527344 18.808594 29.429688 18.710938 29.308594 C 18.625 29.195312 18.496094 29.003906 18.328125 28.734375 L 18.246094 28.589844 C 18.203125 28.519531 18.15625 28.46875 18.105469 28.445312 C 18.058594 28.414062 17.984375 28.398438 17.878906 28.398438 L 17.753906 28.398438 L 17.753906 29.167969 C 17.753906 29.253906 17.757812 29.320312 17.769531 29.375 C 17.777344 29.417969 17.804688 29.453125 17.847656 29.484375 C 17.886719 29.519531 17.960938 29.535156 18.054688 29.535156 L 18.089844 29.535156 C 18.109375 29.535156 18.125 29.542969 18.136719 29.550781 C 18.15625 29.5625 18.167969 29.589844 18.167969 29.628906 C 18.167969 29.660156 18.160156 29.691406 18.152344 29.710938 C 18.140625 29.730469 18.121094 29.742188 18.089844 29.742188 C 17.882812 29.730469 17.6875 29.726562 17.496094 29.726562 C 17.324219 29.726562 17.136719 29.730469 16.9375 29.742188 Z M 18.167969 28.222656 C 18.636719 28.222656 18.871094 28 18.871094 27.550781 C 18.871094 27.371094 18.808594 27.222656 18.679688 27.101562 C 18.558594 26.976562 18.359375 26.910156 18.070312 26.910156 C 17.984375 26.910156 17.917969 26.921875 17.863281 26.941406 C 17.820312 26.96875 17.789062 27.003906 17.769531 27.054688 C 17.757812 27.109375 17.753906 27.195312 17.753906 27.3125 L 17.753906 28.222656 Z M 18.167969 28.222656 " fill-opacity="1" fill-rule="nonzero"/><path fill="rgb(76.858521%, 64.309692%, 35.688782%)" d="M 21.0625 29.742188 C 21.03125 29.742188 21.003906 29.730469 20.980469 29.710938 C 20.96875 29.691406 20.964844 29.660156 20.964844 29.628906 C 20.972656 29.589844 20.988281 29.5625 21 29.550781 C 21.019531 29.542969 21.050781 29.535156 21.09375 29.535156 C 21.179688 29.535156 21.242188 29.519531 21.285156 29.484375 C 21.339844 29.453125 21.371094 29.417969 21.382812 29.375 C 21.390625 29.320312 21.398438 29.253906 21.398438 29.167969 L 21.398438 27.292969 C 21.398438 27.210938 21.390625 27.148438 21.382812 27.101562 C 21.371094 27.050781 21.339844 27.007812 21.285156 26.976562 C 21.242188 26.941406 21.179688 26.925781 21.09375 26.925781 L 21.0625 26.925781 C 21.03125 26.925781 21.007812 26.921875 21 26.910156 C 20.988281 26.902344 20.972656 26.875 20.964844 26.832031 C 20.964844 26.800781 20.96875 26.773438 20.980469 26.75 C 21.003906 26.730469 21.03125 26.71875 21.0625 26.71875 C 21.261719 26.730469 21.449219 26.734375 21.621094 26.734375 C 21.8125 26.734375 22.011719 26.730469 22.214844 26.71875 C 22.246094 26.71875 22.265625 26.730469 22.277344 26.75 C 22.285156 26.773438 22.292969 26.800781 22.292969 26.832031 C 22.292969 26.875 22.28125 26.902344 22.261719 26.910156 C 22.25 26.921875 22.222656 26.925781 22.183594 26.925781 C 22.085938 26.925781 22.015625 26.941406 21.972656 26.976562 C 21.929688 27.007812 21.902344 27.050781 21.894531 27.101562 C 21.882812 27.148438 21.871094 27.210938 21.863281 27.292969 L 21.863281 29.167969 C 21.871094 29.253906 21.882812 29.320312 21.894531 29.375 C 21.902344 29.417969 21.929688 29.453125 21.972656 29.484375 C 22.015625 29.519531 22.085938 29.535156 22.183594 29.535156 L 22.199219 29.535156 C 22.230469 29.535156 22.25 29.542969 22.261719 29.550781 C 22.28125 29.5625 22.292969 29.589844 22.292969 29.628906 C 22.292969 29.660156 22.285156 29.691406 22.277344 29.710938 C 22.265625 29.730469 22.246094 29.742188 22.214844 29.742188 C 22.011719 29.730469 21.8125 29.726562 21.621094 29.726562 C 21.449219 29.726562 21.261719 29.730469 21.0625 29.742188 Z M 21.0625 29.742188 " fill-opacity="1" fill-rule="nonzero"/><path fill="rgb(76.858521%, 64.309692%, 35.688782%)" d="M 23.734375 29.742188 C 23.710938 29.742188 23.691406 29.730469 23.671875 29.710938 C 23.660156 29.691406 23.65625 29.660156 23.65625 29.628906 C 23.65625 29.589844 23.660156 29.5625 23.671875 29.550781 C 23.691406 29.542969 23.722656 29.535156 23.765625 29.535156 C 23.863281 29.535156 23.929688 29.519531 23.976562 29.484375 C 24.015625 29.453125 24.042969 29.417969 24.054688 29.375 C 24.0625 29.320312 24.070312 29.253906 24.070312 29.167969 L 24.085938 27.292969 C 24.085938 27.199219 24.074219 27.132812 24.054688 27.085938 C 24.03125 27.035156 24 27 23.957031 26.976562 C 23.914062 26.953125 23.851562 26.933594 23.765625 26.910156 C 23.710938 26.902344 23.675781 26.894531 23.65625 26.894531 C 23.644531 26.886719 23.640625 26.855469 23.640625 26.800781 C 23.640625 26.765625 23.648438 26.746094 23.671875 26.734375 C 23.691406 26.714844 23.722656 26.703125 23.765625 26.703125 C 23.964844 26.703125 24.121094 26.71875 24.230469 26.75 C 24.347656 26.773438 24.445312 26.824219 24.535156 26.894531 C 24.617188 26.972656 24.714844 27.078125 24.824219 27.214844 L 26.117188 28.910156 L 26.132812 28.910156 L 26.132812 27.292969 C 26.121094 27.210938 26.109375 27.148438 26.101562 27.101562 C 26.089844 27.050781 26.0625 27.007812 26.023438 26.976562 C 25.976562 26.941406 25.914062 26.925781 25.828125 26.925781 L 25.796875 26.925781 C 25.765625 26.925781 25.738281 26.921875 25.71875 26.910156 C 25.707031 26.902344 25.703125 26.875 25.703125 26.832031 C 25.703125 26.800781 25.707031 26.773438 25.71875 26.75 C 25.738281 26.730469 25.765625 26.71875 25.796875 26.71875 C 25.988281 26.730469 26.136719 26.734375 26.246094 26.734375 C 26.308594 26.734375 26.425781 26.734375 26.597656 26.734375 L 26.695312 26.71875 C 26.714844 26.71875 26.730469 26.730469 26.742188 26.75 C 26.761719 26.773438 26.773438 26.800781 26.773438 26.832031 C 26.773438 26.875 26.761719 26.902344 26.742188 26.910156 C 26.730469 26.921875 26.703125 26.925781 26.660156 26.925781 C 26.566406 26.925781 26.492188 26.941406 26.453125 26.976562 C 26.410156 27.007812 26.382812 27.050781 26.375 27.101562 C 26.363281 27.148438 26.359375 27.210938 26.359375 27.292969 L 26.339844 29.679688 C 26.339844 29.722656 26.300781 29.742188 26.230469 29.742188 C 26.164062 29.742188 26.117188 29.722656 26.085938 29.679688 L 24.3125 27.292969 L 24.292969 27.292969 L 24.3125 29.167969 C 24.3125 29.253906 24.316406 29.320312 24.328125 29.375 C 24.335938 29.417969 24.363281 29.453125 24.40625 29.484375 C 24.445312 29.519531 24.511719 29.535156 24.597656 29.535156 L 24.628906 29.535156 C 24.664062 29.535156 24.683594 29.542969 24.695312 29.550781 C 24.714844 29.5625 24.726562 29.589844 24.726562 29.628906 C 24.726562 29.660156 24.714844 29.691406 24.695312 29.710938 C 24.683594 29.730469 24.667969 29.742188 24.644531 29.742188 C 24.441406 29.730469 24.285156 29.726562 24.183594 29.726562 C 24.117188 29.726562 24.007812 29.730469 23.847656 29.742188 Z M 23.734375 29.742188 " fill-opacity="1" fill-rule="nonzero"/><path fill="rgb(76.858521%, 64.309692%, 35.688782%)" d="M 29.582031 29.820312 C 29.3125 29.820312 29.070312 29.757812 28.84375 29.628906 C 28.621094 29.5 28.445312 29.320312 28.316406 29.085938 C 28.191406 28.855469 28.125 28.574219 28.125 28.253906 C 28.125 27.933594 28.183594 27.65625 28.300781 27.40625 C 28.429688 27.164062 28.609375 26.976562 28.84375 26.847656 C 29.078125 26.710938 29.347656 26.640625 29.660156 26.640625 C 29.9375 26.640625 30.175781 26.699219 30.382812 26.816406 C 30.59375 26.921875 30.699219 27.085938 30.699219 27.3125 C 30.707031 27.449219 30.667969 27.574219 30.574219 27.679688 C 30.484375 27.773438 30.367188 27.824219 30.222656 27.824219 C 30.164062 27.824219 30.117188 27.816406 30.078125 27.789062 C 30.03125 27.769531 30 27.75 29.980469 27.726562 C 29.96875 27.695312 29.964844 27.671875 29.964844 27.648438 C 29.964844 27.648438 29.984375 27.628906 30.027344 27.597656 C 30.082031 27.566406 30.125 27.53125 30.15625 27.488281 C 30.1875 27.433594 30.203125 27.371094 30.203125 27.292969 C 30.203125 27.160156 30.15625 27.046875 30.0625 26.960938 C 29.964844 26.875 29.828125 26.832031 29.660156 26.832031 C 29.46875 26.832031 29.296875 26.890625 29.148438 27.007812 C 28.996094 27.113281 28.882812 27.273438 28.796875 27.488281 C 28.710938 27.691406 28.667969 27.933594 28.667969 28.222656 C 28.667969 28.476562 28.710938 28.714844 28.796875 28.925781 C 28.894531 29.128906 29.023438 29.289062 29.179688 29.40625 C 29.347656 29.527344 29.542969 29.582031 29.757812 29.582031 C 29.925781 29.582031 30.070312 29.550781 30.1875 29.484375 C 30.304688 29.414062 30.417969 29.292969 30.523438 29.132812 C 30.53125 29.113281 30.558594 29.101562 30.589844 29.101562 C 30.609375 29.101562 30.636719 29.109375 30.667969 29.117188 C 30.722656 29.160156 30.75 29.199219 30.75 29.230469 C 30.75 29.253906 30.742188 29.269531 30.734375 29.277344 C 30.605469 29.429688 30.484375 29.546875 30.382812 29.628906 C 30.285156 29.707031 30.171875 29.75 30.046875 29.773438 C 29.917969 29.804688 29.761719 29.820312 29.582031 29.820312 Z M 29.582031 29.820312 " fill-opacity="1" fill-rule="nonzero"/><path fill="rgb(76.858521%, 64.309692%, 35.688782%)" d="M 32.148438 29.742188 C 32.117188 29.742188 32.089844 29.730469 32.070312 29.710938 C 32.058594 29.691406 32.054688 29.660156 32.054688 29.628906 C 32.0625 29.589844 32.074219 29.5625 32.085938 29.550781 C 32.105469 29.542969 32.136719 29.535156 32.179688 29.535156 C 32.265625 29.535156 32.328125 29.519531 32.375 29.484375 C 32.425781 29.453125 32.457031 29.417969 32.46875 29.375 C 32.476562 29.320312 32.484375 29.253906 32.484375 29.167969 L 32.484375 27.292969 C 32.484375 27.210938 32.476562 27.148438 32.46875 27.101562 C 32.457031 27.050781 32.425781 27.007812 32.375 26.976562 C 32.328125 26.941406 32.265625 26.925781 32.179688 26.925781 L 32.148438 26.925781 C 32.117188 26.925781 32.09375 26.921875 32.085938 26.910156 C 32.074219 26.902344 32.0625 26.875 32.054688 26.832031 C 32.054688 26.800781 32.058594 26.773438 32.070312 26.75 C 32.089844 26.730469 32.117188 26.71875 32.148438 26.71875 C 32.347656 26.730469 32.539062 26.734375 32.710938 26.734375 C 32.902344 26.734375 33.097656 26.730469 33.300781 26.71875 C 33.332031 26.71875 33.351562 26.730469 33.363281 26.75 C 33.371094 26.773438 33.378906 26.800781 33.378906 26.832031 C 33.378906 26.875 33.367188 26.902344 33.347656 26.910156 C 33.335938 26.921875 33.308594 26.925781 33.269531 26.925781 C 33.171875 26.925781 33.101562 26.941406 33.0625 26.976562 C 33.015625 27.007812 32.988281 27.050781 32.980469 27.101562 C 32.96875 27.148438 32.957031 27.210938 32.949219 27.292969 L 32.949219 29.167969 C 32.957031 29.253906 32.96875 29.320312 32.980469 29.375 C 32.988281 29.417969 33.015625 29.453125 33.0625 29.484375 C 33.101562 29.519531 33.171875 29.535156 33.269531 29.535156 L 33.285156 29.535156 C 33.316406 29.535156 33.335938 29.542969 33.347656 29.550781 C 33.367188 29.5625 33.378906 29.589844 33.378906 29.628906 C 33.378906 29.660156 33.371094 29.691406 33.363281 29.710938 C 33.351562 29.730469 33.332031 29.742188 33.300781 29.742188 C 33.097656 29.730469 32.902344 29.726562 32.710938 29.726562 C 32.539062 29.726562 32.347656 29.730469 32.148438 29.742188 Z M 32.726562 26.445312 C 32.714844 26.460938 32.695312 26.464844 32.675781 26.464844 C 32.644531 26.464844 32.613281 26.457031 32.582031 26.429688 C 32.558594 26.398438 32.550781 26.375 32.550781 26.351562 C 32.550781 26.332031 32.558594 26.3125 32.582031 26.289062 C 32.589844 26.28125 32.648438 26.21875 32.757812 26.113281 C 32.875 25.996094 32.980469 25.898438 33.078125 25.824219 C 33.128906 25.785156 33.171875 25.753906 33.203125 25.742188 C 33.246094 25.722656 33.285156 25.710938 33.316406 25.710938 C 33.355469 25.710938 33.398438 25.734375 33.429688 25.777344 C 33.460938 25.808594 33.476562 25.847656 33.476562 25.886719 C 33.476562 25.953125 33.417969 26.023438 33.300781 26.09375 C 33.066406 26.253906 32.875 26.375 32.726562 26.445312 Z M 32.726562 26.445312 " fill-opacity="1" fill-rule="nonzero"/><path fill="rgb(76.858521%, 64.309692%, 35.688782%)" d="M 34.820312 29.742188 C 34.789062 29.742188 34.761719 29.730469 34.742188 29.710938 C 34.730469 29.691406 34.726562 29.660156 34.726562 29.628906 C 34.734375 29.589844 34.746094 29.5625 34.757812 29.550781 C 34.777344 29.542969 34.808594 29.535156 34.851562 29.535156 C 34.949219 29.535156 35.015625 29.519531 35.0625 29.484375 C 35.101562 29.453125 35.128906 29.417969 35.140625 29.375 C 35.148438 29.320312 35.15625 29.253906 35.15625 29.167969 L 35.15625 27.292969 C 35.15625 27.210938 35.148438 27.148438 35.140625 27.101562 C 35.128906 27.050781 35.101562 27.007812 35.0625 26.976562 C 35.015625 26.941406 34.949219 26.925781 34.851562 26.925781 L 34.820312 26.925781 C 34.789062 26.925781 34.765625 26.921875 34.757812 26.910156 C 34.746094 26.902344 34.734375 26.875 34.726562 26.832031 C 34.726562 26.800781 34.730469 26.773438 34.742188 26.75 C 34.761719 26.730469 34.789062 26.71875 34.820312 26.71875 C 35.019531 26.730469 35.207031 26.734375 35.378906 26.734375 L 36.101562 26.734375 C 36.363281 26.734375 36.628906 26.796875 36.882812 26.910156 C 37.148438 27.03125 37.285156 27.257812 37.285156 27.597656 C 37.285156 27.78125 37.222656 27.945312 37.109375 28.09375 C 36.988281 28.246094 36.839844 28.363281 36.660156 28.445312 C 36.476562 28.523438 36.292969 28.558594 36.101562 28.558594 C 35.917969 28.558594 35.757812 28.539062 35.621094 28.496094 L 35.621094 29.167969 C 35.628906 29.253906 35.640625 29.320312 35.652344 29.375 C 35.660156 29.417969 35.6875 29.453125 35.734375 29.484375 C 35.773438 29.519531 35.84375 29.535156 35.941406 29.535156 L 35.957031 29.535156 C 35.988281 29.535156 36.007812 29.542969 36.019531 29.550781 C 36.039062 29.5625 36.050781 29.589844 36.050781 29.628906 C 36.050781 29.660156 36.042969 29.691406 36.035156 29.710938 C 36.023438 29.730469 36.003906 29.742188 35.972656 29.742188 C 35.769531 29.730469 35.574219 29.726562 35.378906 29.726562 C 35.207031 29.726562 35.019531 29.730469 34.820312 29.742188 Z M 35.957031 28.351562 C 36.074219 28.351562 36.1875 28.332031 36.308594 28.285156 C 36.4375 28.246094 36.539062 28.171875 36.628906 28.0625 C 36.710938 27.945312 36.757812 27.789062 36.757812 27.597656 C 36.757812 27.324219 36.664062 27.144531 36.484375 27.054688 C 36.3125 26.960938 36.125 26.910156 35.925781 26.910156 C 35.835938 26.910156 35.773438 26.921875 35.734375 26.941406 C 35.699219 26.953125 35.671875 26.988281 35.652344 27.039062 C 35.628906 27.09375 35.621094 27.175781 35.621094 27.277344 L 35.621094 28.300781 C 35.691406 28.335938 35.804688 28.351562 35.957031 28.351562 Z M 35.957031 28.351562 " fill-opacity="1" fill-rule="nonzero"/><path fill="rgb(76.858521%, 64.309692%, 35.688782%)" d="M 38.628906 29.742188 C 38.597656 29.742188 38.574219 29.730469 38.566406 29.710938 C 38.554688 29.691406 38.550781 29.660156 38.550781 29.628906 C 38.550781 29.589844 38.554688 29.5625 38.566406 29.550781 C 38.585938 29.542969 38.617188 29.535156 38.664062 29.535156 C 38.757812 29.535156 38.828125 29.519531 38.871094 29.484375 C 38.910156 29.453125 38.9375 29.417969 38.949219 29.375 C 38.957031 29.320312 38.964844 29.253906 38.964844 29.167969 L 38.964844 27.292969 C 38.964844 27.210938 38.957031 27.148438 38.949219 27.101562 C 38.9375 27.050781 38.910156 27.007812 38.871094 26.976562 C 38.828125 26.941406 38.757812 26.925781 38.664062 26.925781 L 38.628906 26.925781 C 38.597656 26.925781 38.574219 26.921875 38.566406 26.910156 C 38.554688 26.902344 38.550781 26.875 38.550781 26.832031 C 38.550781 26.800781 38.554688 26.773438 38.566406 26.75 C 38.574219 26.730469 38.597656 26.71875 38.628906 26.71875 C 38.832031 26.730469 39.019531 26.734375 39.191406 26.734375 L 40.675781 26.734375 C 40.761719 26.734375 40.804688 26.773438 40.804688 26.847656 L 40.820312 27.519531 C 40.820312 27.542969 40.804688 27.5625 40.773438 27.582031 C 40.742188 27.605469 40.714844 27.613281 40.695312 27.613281 C 40.648438 27.613281 40.613281 27.609375 40.582031 27.597656 C 40.558594 27.578125 40.542969 27.550781 40.535156 27.519531 C 40.507812 27.371094 40.484375 27.257812 40.453125 27.183594 C 40.421875 27.097656 40.375 27.035156 40.308594 26.992188 C 40.253906 26.949219 40.171875 26.925781 40.070312 26.925781 L 39.445312 26.925781 L 39.445312 28.125 L 40.292969 28.125 C 40.3125 28.136719 40.328125 28.15625 40.339844 28.175781 C 40.363281 28.1875 40.375 28.207031 40.375 28.238281 C 40.375 28.261719 40.363281 28.28125 40.339844 28.300781 C 40.328125 28.328125 40.3125 28.335938 40.292969 28.335938 L 39.445312 28.335938 L 39.445312 29.230469 C 39.445312 29.292969 39.449219 29.351562 39.460938 29.390625 C 39.46875 29.433594 39.5 29.46875 39.542969 29.5 C 39.59375 29.527344 39.671875 29.535156 39.765625 29.535156 L 40.214844 29.535156 C 40.316406 29.535156 40.398438 29.519531 40.453125 29.484375 C 40.519531 29.453125 40.566406 29.40625 40.597656 29.34375 C 40.628906 29.269531 40.664062 29.148438 40.710938 28.988281 C 40.730469 28.925781 40.78125 28.90625 40.871094 28.925781 C 40.902344 28.925781 40.925781 28.9375 40.949219 28.957031 C 40.980469 28.980469 40.988281 29.003906 40.980469 29.023438 L 40.902344 29.628906 C 40.890625 29.671875 40.875 29.703125 40.851562 29.710938 C 40.828125 29.722656 40.796875 29.726562 40.757812 29.726562 L 39.191406 29.726562 C 39.019531 29.726562 38.832031 29.730469 38.628906 29.742188 Z M 38.628906 29.742188 " fill-opacity="1" fill-rule="nonzero"/><path fill="rgb(76.858521%, 64.309692%, 35.688782%)" d="M 14.261719 36.058594 C 14.230469 36.058594 14.207031 36.046875 14.199219 36.027344 C 14.1875 36.007812 14.183594 35.980469 14.183594 35.945312 C 14.183594 35.90625 14.1875 35.878906 14.199219 35.867188 C 14.21875 35.859375 14.25 35.851562 14.292969 35.851562 C 14.390625 35.851562 14.457031 35.835938 14.5 35.804688 C 14.542969 35.769531 14.570312 35.734375 14.582031 35.691406 C 14.589844 35.640625 14.597656 35.570312 14.597656 35.484375 L 14.597656 33.613281 C 14.597656 33.527344 14.589844 33.464844 14.582031 33.421875 C 14.570312 33.367188 14.542969 33.324219 14.5 33.292969 C 14.457031 33.261719 14.390625 33.246094 14.292969 33.246094 L 14.261719 33.246094 C 14.230469 33.246094 14.207031 33.242188 14.199219 33.226562 C 14.1875 33.21875 14.183594 33.191406 14.183594 33.148438 C 14.183594 33.117188 14.1875 33.09375 14.199219 33.070312 C 14.207031 33.046875 14.230469 33.035156 14.261719 33.035156 C 14.460938 33.046875 14.648438 33.050781 14.820312 33.050781 C 15.011719 33.050781 15.210938 33.046875 15.414062 33.035156 C 15.445312 33.035156 15.464844 33.046875 15.476562 33.070312 C 15.484375 33.09375 15.492188 33.117188 15.492188 33.148438 C 15.492188 33.191406 15.480469 33.21875 15.460938 33.226562 C 15.449219 33.242188 15.421875 33.246094 15.382812 33.246094 C 15.285156 33.246094 15.214844 33.261719 15.171875 33.292969 C 15.128906 33.324219 15.101562 33.367188 15.09375 33.421875 C 15.082031 33.464844 15.078125 33.527344 15.078125 33.613281 L 15.078125 35.5625 C 15.078125 35.628906 15.082031 35.683594 15.09375 35.722656 C 15.101562 35.753906 15.128906 35.789062 15.171875 35.820312 C 15.226562 35.84375 15.300781 35.851562 15.398438 35.851562 L 15.828125 35.851562 C 15.933594 35.851562 16.011719 35.835938 16.070312 35.804688 C 16.132812 35.769531 16.179688 35.722656 16.214844 35.660156 C 16.246094 35.585938 16.285156 35.46875 16.339844 35.308594 C 16.359375 35.242188 16.414062 35.222656 16.5 35.242188 C 16.519531 35.242188 16.539062 35.253906 16.566406 35.277344 C 16.597656 35.300781 16.613281 35.320312 16.613281 35.339844 L 16.515625 35.945312 C 16.503906 35.992188 16.488281 36.019531 16.46875 36.027344 C 16.457031 36.039062 16.425781 36.042969 16.371094 36.042969 L 14.820312 36.042969 C 14.648438 36.042969 14.460938 36.046875 14.261719 36.058594 Z M 14.261719 36.058594 " fill-opacity="1" fill-rule="nonzero"/><path fill="rgb(76.858521%, 64.309692%, 35.688782%)" d="M 17.914062 36.058594 C 17.882812 36.058594 17.855469 36.046875 17.835938 36.027344 C 17.824219 36.007812 17.820312 35.980469 17.820312 35.945312 C 17.828125 35.90625 17.839844 35.878906 17.851562 35.867188 C 17.871094 35.859375 17.902344 35.851562 17.945312 35.851562 C 18.03125 35.851562 18.09375 35.835938 18.140625 35.804688 C 18.191406 35.769531 18.222656 35.734375 18.234375 35.691406 C 18.242188 35.640625 18.25 35.570312 18.25 35.484375 L 18.25 33.613281 C 18.25 33.527344 18.242188 33.464844 18.234375 33.421875 C 18.222656 33.367188 18.191406 33.324219 18.140625 33.292969 C 18.09375 33.261719 18.03125 33.246094 17.945312 33.246094 L 17.914062 33.246094 C 17.882812 33.246094 17.859375 33.242188 17.851562 33.226562 C 17.839844 33.21875 17.828125 33.191406 17.820312 33.148438 C 17.820312 33.117188 17.824219 33.09375 17.835938 33.070312 C 17.855469 33.046875 17.882812 33.035156 17.914062 33.035156 C 18.113281 33.046875 18.304688 33.050781 18.476562 33.050781 C 18.667969 33.050781 18.863281 33.046875 19.066406 33.035156 C 19.097656 33.035156 19.117188 33.046875 19.128906 33.070312 C 19.136719 33.09375 19.144531 33.117188 19.144531 33.148438 C 19.144531 33.191406 19.132812 33.21875 19.113281 33.226562 C 19.101562 33.242188 19.074219 33.246094 19.035156 33.246094 C 18.9375 33.246094 18.867188 33.261719 18.828125 33.292969 C 18.78125 33.324219 18.753906 33.367188 18.746094 33.421875 C 18.734375 33.464844 18.722656 33.527344 18.714844 33.613281 L 18.714844 35.484375 C 18.722656 35.570312 18.734375 35.640625 18.746094 35.691406 C 18.753906 35.734375 18.78125 35.769531 18.828125 35.804688 C 18.867188 35.835938 18.9375 35.851562 19.035156 35.851562 L 19.050781 35.851562 C 19.082031 35.851562 19.101562 35.859375 19.113281 35.867188 C 19.132812 35.878906 19.144531 35.90625 19.144531 35.945312 C 19.144531 35.980469 19.136719 36.007812 19.128906 36.027344 C 19.117188 36.046875 19.097656 36.058594 19.066406 36.058594 C 18.863281 36.046875 18.667969 36.042969 18.476562 36.042969 C 18.304688 36.042969 18.113281 36.046875 17.914062 36.058594 Z M 17.914062 36.058594 " fill-opacity="1" fill-rule="nonzero"/><path fill="rgb(76.858521%, 64.309692%, 35.688782%)" d="M 22.332031 36.058594 C 22.273438 36.058594 22.238281 36.046875 22.21875 36.027344 L 21.164062 33.613281 L 21.148438 33.613281 L 21.164062 35.484375 C 21.164062 35.570312 21.167969 35.640625 21.179688 35.691406 C 21.1875 35.734375 21.214844 35.769531 21.257812 35.804688 C 21.300781 35.835938 21.363281 35.851562 21.449219 35.851562 L 21.484375 35.851562 C 21.515625 35.851562 21.535156 35.859375 21.546875 35.867188 C 21.566406 35.878906 21.578125 35.90625 21.578125 35.945312 C 21.578125 35.980469 21.566406 36.007812 21.546875 36.027344 C 21.535156 36.046875 21.519531 36.058594 21.5 36.058594 L 21.371094 36.058594 C 21.230469 36.046875 21.132812 36.042969 21.066406 36.042969 C 20.960938 36.042969 20.800781 36.046875 20.585938 36.058594 C 20.5625 36.058594 20.542969 36.046875 20.523438 36.027344 C 20.511719 36.007812 20.507812 35.980469 20.507812 35.945312 C 20.507812 35.90625 20.511719 35.878906 20.523438 35.867188 C 20.542969 35.859375 20.574219 35.851562 20.621094 35.851562 C 20.714844 35.851562 20.785156 35.835938 20.828125 35.804688 C 20.867188 35.769531 20.894531 35.734375 20.90625 35.691406 C 20.914062 35.640625 20.921875 35.570312 20.921875 35.484375 L 20.9375 33.613281 C 20.9375 33.515625 20.925781 33.449219 20.90625 33.402344 C 20.882812 33.351562 20.851562 33.316406 20.8125 33.292969 C 20.765625 33.273438 20.703125 33.253906 20.621094 33.226562 C 20.609375 33.226562 20.585938 33.226562 20.554688 33.226562 C 20.53125 33.21875 20.515625 33.207031 20.507812 33.195312 C 20.496094 33.175781 20.492188 33.148438 20.492188 33.117188 C 20.492188 33.085938 20.5 33.0625 20.523438 33.050781 C 20.542969 33.03125 20.574219 33.019531 20.621094 33.019531 C 20.8125 33.019531 20.964844 33.035156 21.082031 33.070312 C 21.199219 33.09375 21.300781 33.140625 21.386719 33.210938 C 21.484375 33.289062 21.5625 33.394531 21.628906 33.53125 L 22.441406 35.355469 L 22.457031 35.355469 L 23.386719 33.050781 L 23.65625 33.050781 C 23.824219 33.050781 24.015625 33.046875 24.21875 33.035156 C 24.25 33.035156 24.269531 33.046875 24.28125 33.070312 C 24.289062 33.09375 24.296875 33.117188 24.296875 33.148438 C 24.296875 33.191406 24.285156 33.21875 24.265625 33.226562 C 24.253906 33.242188 24.226562 33.246094 24.1875 33.246094 C 24.089844 33.246094 24.019531 33.261719 23.976562 33.292969 C 23.933594 33.324219 23.90625 33.367188 23.898438 33.421875 C 23.886719 33.464844 23.882812 33.527344 23.882812 33.613281 L 23.882812 35.484375 C 23.882812 35.570312 23.886719 35.640625 23.898438 35.691406 C 23.90625 35.734375 23.933594 35.769531 23.976562 35.804688 C 24.019531 35.835938 24.089844 35.851562 24.1875 35.851562 L 24.21875 35.851562 C 24.238281 35.851562 24.253906 35.859375 24.265625 35.867188 C 24.285156 35.878906 24.296875 35.90625 24.296875 35.945312 C 24.296875 35.980469 24.289062 36.007812 24.28125 36.027344 C 24.269531 36.046875 24.25 36.058594 24.21875 36.058594 C 24.015625 36.046875 23.824219 36.042969 23.65625 36.042969 C 23.464844 36.042969 23.265625 36.046875 23.066406 36.058594 C 23.035156 36.058594 23.011719 36.046875 23.003906 36.027344 C 22.992188 36.007812 22.988281 35.980469 22.988281 35.945312 C 22.988281 35.90625 22.992188 35.878906 23.003906 35.867188 C 23.023438 35.859375 23.054688 35.851562 23.097656 35.851562 C 23.195312 35.851562 23.261719 35.835938 23.304688 35.804688 C 23.347656 35.769531 23.375 35.734375 23.386719 35.691406 C 23.394531 35.640625 23.402344 35.570312 23.402344 35.484375 L 23.402344 33.613281 L 22.425781 36.027344 C 22.402344 36.046875 22.371094 36.058594 22.332031 36.058594 Z M 22.332031 36.058594 " fill-opacity="1" fill-rule="nonzero"/><path fill="rgb(76.858521%, 64.309692%, 35.688782%)" d="M 25.746094 36.058594 C 25.714844 36.058594 25.6875 36.046875 25.667969 36.027344 C 25.652344 36.007812 25.648438 35.980469 25.648438 35.945312 C 25.65625 35.90625 25.671875 35.878906 25.683594 35.867188 C 25.703125 35.859375 25.734375 35.851562 25.777344 35.851562 C 25.875 35.851562 25.941406 35.835938 25.984375 35.804688 C 26.027344 35.769531 26.054688 35.734375 26.066406 35.691406 C 26.074219 35.640625 26.082031 35.570312 26.082031 35.484375 L 26.082031 33.613281 C 26.082031 33.527344 26.074219 33.464844 26.066406 33.421875 C 26.054688 33.367188 26.027344 33.324219 25.984375 33.292969 C 25.941406 33.261719 25.875 33.246094 25.777344 33.246094 L 25.746094 33.246094 C 25.714844 33.246094 25.691406 33.242188 25.683594 33.226562 C 25.671875 33.21875 25.65625 33.191406 25.648438 33.148438 C 25.648438 33.117188 25.652344 33.09375 25.667969 33.070312 C 25.6875 33.046875 25.714844 33.035156 25.746094 33.035156 C 25.945312 33.046875 26.132812 33.050781 26.304688 33.050781 L 27.027344 33.050781 C 27.289062 33.050781 27.554688 33.113281 27.808594 33.226562 C 28.074219 33.347656 28.210938 33.578125 28.210938 33.917969 C 28.210938 34.101562 28.148438 34.265625 28.03125 34.410156 C 27.914062 34.5625 27.765625 34.679688 27.585938 34.765625 C 27.402344 34.839844 27.21875 34.875 27.027344 34.875 C 26.839844 34.875 26.683594 34.855469 26.546875 34.8125 L 26.546875 35.484375 C 26.554688 35.570312 26.566406 35.640625 26.578125 35.691406 C 26.585938 35.734375 26.613281 35.769531 26.65625 35.804688 C 26.699219 35.835938 26.769531 35.851562 26.867188 35.851562 L 26.882812 35.851562 C 26.914062 35.851562 26.933594 35.859375 26.945312 35.867188 C 26.964844 35.878906 26.976562 35.90625 26.976562 35.945312 C 26.976562 35.980469 26.96875 36.007812 26.960938 36.027344 C 26.949219 36.046875 26.929688 36.058594 26.898438 36.058594 C 26.695312 36.046875 26.496094 36.042969 26.304688 36.042969 C 26.132812 36.042969 25.945312 36.046875 25.746094 36.058594 Z M 26.882812 34.667969 C 26.996094 34.667969 27.113281 34.648438 27.234375 34.605469 C 27.363281 34.5625 27.464844 34.488281 27.554688 34.378906 C 27.636719 34.265625 27.679688 34.109375 27.679688 33.917969 C 27.679688 33.640625 27.589844 33.460938 27.410156 33.371094 C 27.238281 33.277344 27.050781 33.226562 26.851562 33.226562 C 26.761719 33.226562 26.699219 33.242188 26.65625 33.261719 C 26.625 33.273438 26.597656 33.304688 26.578125 33.355469 C 26.554688 33.414062 26.546875 33.492188 26.546875 33.597656 L 26.546875 34.621094 C 26.617188 34.652344 26.730469 34.667969 26.882812 34.667969 Z M 26.882812 34.667969 " fill-opacity="1" fill-rule="nonzero"/><path fill="rgb(76.858521%, 64.309692%, 35.688782%)" d="M 29.554688 36.058594 C 29.523438 36.058594 29.5 36.046875 29.492188 36.027344 C 29.480469 36.007812 29.476562 35.980469 29.476562 35.945312 C 29.476562 35.90625 29.480469 35.878906 29.492188 35.867188 C 29.511719 35.859375 29.542969 35.851562 29.585938 35.851562 C 29.683594 35.851562 29.75 35.835938 29.796875 35.804688 C 29.835938 35.769531 29.863281 35.734375 29.875 35.691406 C 29.882812 35.640625 29.890625 35.570312 29.890625 35.484375 L 29.890625 33.613281 C 29.890625 33.527344 29.882812 33.464844 29.875 33.421875 C 29.863281 33.367188 29.835938 33.324219 29.796875 33.292969 C 29.75 33.261719 29.683594 33.246094 29.585938 33.246094 L 29.554688 33.246094 C 29.523438 33.246094 29.5 33.242188 29.492188 33.226562 C 29.480469 33.21875 29.476562 33.191406 29.476562 33.148438 C 29.476562 33.117188 29.480469 33.09375 29.492188 33.070312 C 29.5 33.046875 29.523438 33.035156 29.554688 33.035156 C 29.753906 33.046875 29.945312 33.050781 30.117188 33.050781 L 31.601562 33.050781 C 31.6875 33.050781 31.730469 33.09375 31.730469 33.164062 L 31.746094 33.835938 C 31.746094 33.859375 31.730469 33.878906 31.699219 33.898438 C 31.667969 33.925781 31.640625 33.933594 31.617188 33.933594 C 31.574219 33.933594 31.539062 33.929688 31.507812 33.917969 C 31.484375 33.894531 31.46875 33.867188 31.457031 33.835938 C 31.433594 33.6875 31.410156 33.578125 31.378906 33.5 C 31.347656 33.417969 31.300781 33.351562 31.234375 33.308594 C 31.179688 33.269531 31.097656 33.246094 30.996094 33.246094 L 30.371094 33.246094 L 30.371094 34.445312 L 31.21875 34.445312 C 31.238281 34.457031 31.253906 34.472656 31.265625 34.492188 C 31.285156 34.503906 31.300781 34.523438 31.300781 34.554688 C 31.300781 34.578125 31.285156 34.601562 31.265625 34.621094 C 31.253906 34.644531 31.238281 34.652344 31.21875 34.652344 L 30.371094 34.652344 L 30.371094 35.546875 C 30.371094 35.609375 30.375 35.667969 30.386719 35.707031 C 30.394531 35.75 30.421875 35.789062 30.46875 35.820312 C 30.519531 35.84375 30.59375 35.851562 30.691406 35.851562 L 31.140625 35.851562 C 31.242188 35.851562 31.324219 35.835938 31.378906 35.804688 C 31.441406 35.769531 31.492188 35.722656 31.523438 35.660156 C 31.554688 35.585938 31.589844 35.46875 31.636719 35.308594 C 31.65625 35.242188 31.707031 35.222656 31.792969 35.242188 C 31.828125 35.242188 31.851562 35.253906 31.875 35.277344 C 31.90625 35.300781 31.914062 35.320312 31.90625 35.339844 L 31.828125 35.945312 C 31.816406 35.992188 31.796875 36.019531 31.777344 36.027344 C 31.753906 36.039062 31.722656 36.042969 31.683594 36.042969 L 30.117188 36.042969 C 29.945312 36.042969 29.753906 36.046875 29.554688 36.058594 Z M 29.554688 36.058594 " fill-opacity="1" fill-rule="nonzero"/><path fill="rgb(76.858521%, 64.309692%, 35.688782%)" d="M 33.269531 36.058594 C 33.246094 36.058594 33.226562 36.046875 33.207031 36.027344 C 33.191406 36.007812 33.1875 35.980469 33.1875 35.945312 C 33.1875 35.90625 33.191406 35.878906 33.207031 35.867188 C 33.226562 35.859375 33.253906 35.851562 33.285156 35.851562 C 33.347656 35.851562 33.398438 35.847656 33.429688 35.835938 C 33.46875 35.828125 33.507812 35.804688 33.542969 35.769531 C 33.574219 35.730469 33.613281 35.660156 33.667969 35.5625 L 34.726562 33.613281 C 34.789062 33.484375 34.820312 33.394531 34.820312 33.339844 C 34.820312 33.300781 34.796875 33.273438 34.757812 33.261719 C 34.710938 33.253906 34.636719 33.246094 34.53125 33.246094 L 34.019531 33.246094 C 33.914062 33.246094 33.828125 33.269531 33.765625 33.308594 C 33.710938 33.339844 33.667969 33.394531 33.636719 33.46875 C 33.605469 33.53125 33.5625 33.640625 33.507812 33.789062 C 33.507812 33.820312 33.492188 33.84375 33.460938 33.851562 C 33.429688 33.863281 33.398438 33.867188 33.367188 33.867188 C 33.332031 33.859375 33.304688 33.84375 33.285156 33.820312 C 33.261719 33.800781 33.257812 33.78125 33.269531 33.757812 L 33.347656 33.148438 C 33.355469 33.117188 33.375 33.097656 33.398438 33.085938 C 33.417969 33.0625 33.449219 33.050781 33.492188 33.050781 L 35.125 33.050781 C 35.304688 33.050781 35.496094 33.046875 35.699219 33.035156 C 35.730469 33.035156 35.753906 33.046875 35.765625 33.070312 C 35.773438 33.09375 35.78125 33.117188 35.78125 33.148438 C 35.78125 33.191406 35.773438 33.21875 35.765625 33.226562 C 35.753906 33.242188 35.734375 33.246094 35.714844 33.246094 C 35.691406 33.246094 35.675781 33.246094 35.667969 33.246094 C 35.558594 33.257812 35.476562 33.292969 35.414062 33.355469 C 35.355469 33.414062 35.304688 33.496094 35.253906 33.613281 L 34.210938 35.5625 C 34.179688 35.628906 34.164062 35.675781 34.164062 35.707031 C 34.164062 35.804688 34.25 35.851562 34.421875 35.851562 L 34.980469 35.851562 C 35.085938 35.851562 35.164062 35.835938 35.21875 35.804688 C 35.285156 35.769531 35.332031 35.722656 35.363281 35.660156 C 35.394531 35.585938 35.4375 35.46875 35.492188 35.308594 C 35.5 35.242188 35.554688 35.222656 35.652344 35.242188 C 35.671875 35.242188 35.691406 35.253906 35.714844 35.277344 C 35.734375 35.300781 35.75 35.320312 35.75 35.339844 L 35.652344 35.945312 C 35.640625 35.992188 35.625 36.019531 35.605469 36.027344 C 35.59375 36.039062 35.558594 36.042969 35.507812 36.042969 L 33.84375 36.042969 C 33.671875 36.042969 33.480469 36.046875 33.269531 36.058594 Z M 33.269531 36.058594 " fill-opacity="1" fill-rule="nonzero"/><path fill="rgb(76.858521%, 64.309692%, 35.688782%)" d="M 36.949219 36.058594 C 36.917969 36.058594 36.898438 36.046875 36.886719 36.027344 C 36.867188 36.007812 36.855469 35.980469 36.855469 35.945312 C 36.867188 35.90625 36.882812 35.878906 36.902344 35.867188 C 36.914062 35.859375 36.925781 35.851562 36.949219 35.851562 C 36.972656 35.851562 36.984375 35.851562 36.984375 35.851562 C 37.078125 35.851562 37.148438 35.832031 37.191406 35.789062 C 37.242188 35.734375 37.277344 35.675781 37.300781 35.609375 C 37.335938 35.546875 37.355469 35.507812 37.367188 35.484375 L 38.183594 33.53125 C 38.203125 33.480469 38.214844 33.445312 38.214844 33.421875 C 38.214844 33.355469 38.191406 33.316406 38.148438 33.292969 C 38.105469 33.273438 38.042969 33.253906 37.957031 33.226562 C 37.902344 33.21875 37.871094 33.210938 37.863281 33.210938 C 37.851562 33.203125 37.847656 33.171875 37.847656 33.117188 C 37.847656 33.085938 37.855469 33.0625 37.878906 33.050781 C 37.898438 33.03125 37.929688 33.019531 37.972656 33.019531 C 38.132812 33.019531 38.253906 33.035156 38.34375 33.070312 C 38.4375 33.09375 38.519531 33.140625 38.582031 33.210938 C 38.652344 33.277344 38.726562 33.382812 38.789062 33.53125 L 39.589844 35.484375 C 39.628906 35.609375 39.671875 35.707031 39.71875 35.769531 C 39.757812 35.828125 39.828125 35.851562 39.925781 35.851562 L 39.941406 35.851562 C 39.972656 35.851562 39.992188 35.859375 40.003906 35.867188 C 40.027344 35.878906 40.039062 35.90625 40.039062 35.945312 C 40.039062 35.980469 40.027344 36.007812 40.003906 36.027344 C 39.992188 36.046875 39.976562 36.058594 39.957031 36.058594 C 39.753906 36.046875 39.578125 36.042969 39.429688 36.042969 C 39.238281 36.042969 39.039062 36.046875 38.839844 36.058594 C 38.8125 36.058594 38.792969 36.046875 38.773438 36.027344 C 38.761719 36.007812 38.757812 35.980469 38.757812 35.945312 C 38.757812 35.90625 38.761719 35.878906 38.773438 35.867188 C 38.792969 35.859375 38.820312 35.851562 38.855469 35.851562 C 38.957031 35.851562 39.035156 35.84375 39.078125 35.820312 C 39.117188 35.800781 39.140625 35.761719 39.140625 35.707031 C 39.140625 35.667969 39.125 35.589844 39.09375 35.484375 L 38.933594 35.097656 L 37.75 35.097656 C 37.675781 35.292969 37.628906 35.402344 37.621094 35.433594 C 37.609375 35.46875 37.605469 35.484375 37.605469 35.484375 C 37.5625 35.609375 37.542969 35.691406 37.542969 35.722656 C 37.542969 35.777344 37.5625 35.816406 37.605469 35.835938 C 37.660156 35.847656 37.753906 35.851562 37.894531 35.851562 L 37.910156 35.851562 C 37.941406 35.851562 37.960938 35.859375 37.972656 35.867188 C 37.996094 35.878906 38.007812 35.90625 38.007812 35.945312 C 38.007812 35.980469 37.996094 36.007812 37.972656 36.027344 C 37.960938 36.046875 37.945312 36.058594 37.925781 36.058594 C 37.722656 36.046875 37.546875 36.042969 37.398438 36.042969 C 37.300781 36.042969 37.152344 36.046875 36.949219 36.058594 Z M 37.847656 34.890625 L 38.839844 34.890625 L 38.359375 33.675781 L 38.34375 33.675781 Z M 37.847656 34.890625 " fill-opacity="1" fill-rule="nonzero"/><path fill="rgb(76.858521%, 64.309692%, 35.688782%)" d="M 12.902344 42.179688 L 13.0625 42.179688 L 13.0625 43.15625 L 13.652344 43.15625 L 13.652344 43.300781 L 12.902344 43.300781 Z M 12.902344 42.179688 " fill-opacity="1" fill-rule="nonzero"/><path fill="rgb(76.858521%, 64.309692%, 35.688782%)" d="M 14.335938 42.179688 L 14.496094 42.179688 L 14.496094 43.300781 L 14.335938 43.300781 Z M 14.335938 42.179688 " fill-opacity="1" fill-rule="nonzero"/><path fill="rgb(76.858521%, 64.309692%, 35.688782%)" d="M 16.339844 43.300781 L 16.339844 42.484375 L 15.941406 43.15625 L 15.859375 43.15625 L 15.460938 42.484375 L 15.460938 43.300781 L 15.316406 43.300781 L 15.316406 42.179688 L 15.445312 42.179688 L 15.910156 42.964844 L 16.371094 42.179688 L 16.5 42.179688 L 16.5 43.300781 Z M 16.339844 43.300781 " fill-opacity="1" fill-rule="nonzero"/><path fill="rgb(76.858521%, 64.309692%, 35.688782%)" d="M 17.765625 42.179688 C 17.902344 42.179688 18.011719 42.222656 18.101562 42.292969 C 18.183594 42.359375 18.230469 42.449219 18.230469 42.566406 C 18.230469 42.691406 18.183594 42.796875 18.101562 42.871094 C 18.011719 42.933594 17.902344 42.964844 17.765625 42.964844 L 17.492188 42.964844 L 17.492188 43.300781 L 17.332031 43.300781 L 17.332031 42.179688 Z M 17.765625 42.820312 C 17.859375 42.820312 17.933594 42.800781 17.988281 42.757812 C 18.039062 42.71875 18.070312 42.652344 18.070312 42.566406 C 18.070312 42.492188 18.039062 42.433594 17.988281 42.390625 C 17.933594 42.347656 17.859375 42.324219 17.765625 42.324219 L 17.492188 42.324219 L 17.492188 42.820312 Z M 17.765625 42.820312 " fill-opacity="1" fill-rule="nonzero"/><path fill="rgb(76.858521%, 64.309692%, 35.688782%)" d="M 19.773438 43.15625 L 19.773438 43.300781 L 18.972656 43.300781 L 18.972656 42.179688 L 19.757812 42.179688 L 19.757812 42.324219 L 19.132812 42.324219 L 19.132812 42.660156 L 19.695312 42.660156 L 19.695312 42.804688 L 19.132812 42.804688 L 19.132812 43.15625 Z M 19.773438 43.15625 " fill-opacity="1" fill-rule="nonzero"/><path fill="rgb(76.858521%, 64.309692%, 35.688782%)" d="M 21.363281 43.15625 L 21.363281 43.300781 L 20.421875 43.300781 L 20.421875 43.1875 L 21.125 42.324219 L 20.4375 42.324219 L 20.4375 42.179688 L 21.347656 42.179688 L 21.347656 42.292969 L 20.644531 43.15625 Z M 21.363281 43.15625 " fill-opacity="1" fill-rule="nonzero"/><path fill="rgb(76.858521%, 64.309692%, 35.688782%)" d="M 22.773438 43.011719 L 22.183594 43.011719 L 22.054688 43.300781 L 21.894531 43.300781 L 22.40625 42.179688 L 22.566406 42.179688 L 23.0625 43.300781 L 22.902344 43.300781 Z M 22.726562 42.886719 L 22.484375 42.339844 L 22.230469 42.886719 Z M 22.726562 42.886719 " fill-opacity="1" fill-rule="nonzero"/><path fill="rgb(76.858521%, 64.309692%, 35.688782%)" d="M 25.441406 43.15625 L 25.441406 43.300781 L 24.640625 43.300781 L 24.640625 42.179688 L 25.425781 42.179688 L 25.425781 42.324219 L 24.800781 42.324219 L 24.800781 42.660156 L 25.359375 42.660156 L 25.359375 42.804688 L 24.800781 42.804688 L 24.800781 43.15625 Z M 25.441406 43.15625 " fill-opacity="1" fill-rule="nonzero"/><path fill="rgb(76.858521%, 64.309692%, 35.688782%)" d="M 27.222656 43.300781 L 27.222656 42.484375 L 26.824219 43.15625 L 26.742188 43.15625 L 26.34375 42.484375 L 26.34375 43.300781 L 26.199219 43.300781 L 26.199219 42.179688 L 26.328125 42.179688 L 26.792969 42.964844 L 27.253906 42.179688 L 27.382812 42.179688 L 27.382812 43.300781 Z M 27.222656 43.300781 " fill-opacity="1" fill-rule="nonzero"/><path fill="rgb(76.858521%, 64.309692%, 35.688782%)" d="M 28.648438 42.179688 C 28.785156 42.179688 28.894531 42.222656 28.984375 42.292969 C 29.066406 42.359375 29.109375 42.449219 29.109375 42.566406 C 29.109375 42.691406 29.066406 42.796875 28.984375 42.871094 C 28.894531 42.933594 28.785156 42.964844 28.648438 42.964844 L 28.375 42.964844 L 28.375 43.300781 L 28.214844 43.300781 L 28.214844 42.179688 Z M 28.648438 42.820312 C 28.742188 42.820312 28.816406 42.800781 28.871094 42.757812 C 28.921875 42.71875 28.953125 42.652344 28.953125 42.566406 C 28.953125 42.492188 28.921875 42.433594 28.871094 42.390625 C 28.816406 42.347656 28.742188 42.324219 28.648438 42.324219 L 28.375 42.324219 L 28.375 42.820312 Z M 28.648438 42.820312 " fill-opacity="1" fill-rule="nonzero"/><path fill="rgb(76.858521%, 64.309692%, 35.688782%)" d="M 30.59375 43.300781 L 30.351562 42.949219 C 30.320312 42.960938 30.296875 42.964844 30.289062 42.964844 L 30.015625 42.964844 L 30.015625 43.300781 L 29.855469 43.300781 L 29.855469 42.179688 L 30.289062 42.179688 C 30.425781 42.179688 30.535156 42.222656 30.625 42.292969 C 30.707031 42.359375 30.753906 42.449219 30.753906 42.566406 C 30.753906 42.652344 30.730469 42.726562 30.6875 42.789062 C 30.644531 42.851562 30.585938 42.898438 30.511719 42.917969 L 30.769531 43.300781 Z M 30.289062 42.820312 C 30.386719 42.820312 30.457031 42.800781 30.511719 42.757812 C 30.566406 42.71875 30.59375 42.652344 30.59375 42.566406 C 30.59375 42.492188 30.566406 42.433594 30.511719 42.390625 C 30.457031 42.347656 30.386719 42.324219 30.289062 42.324219 L 30.015625 42.324219 L 30.015625 42.820312 Z M 30.289062 42.820312 " fill-opacity="1" fill-rule="nonzero"/><path fill="rgb(76.858521%, 64.309692%, 35.688782%)" d="M 32.308594 43.15625 L 32.308594 43.300781 L 31.507812 43.300781 L 31.507812 42.179688 L 32.289062 42.179688 L 32.289062 42.324219 L 31.667969 42.324219 L 31.667969 42.660156 L 32.226562 42.660156 L 32.226562 42.804688 L 31.667969 42.804688 L 31.667969 43.15625 Z M 32.308594 43.15625 " fill-opacity="1" fill-rule="nonzero"/><path fill="rgb(76.858521%, 64.309692%, 35.688782%)" d="M 33.386719 43.316406 C 33.296875 43.316406 33.214844 43.304688 33.128906 43.285156 C 33.054688 43.253906 32.992188 43.21875 32.953125 43.171875 L 33.015625 43.046875 C 33.058594 43.089844 33.113281 43.121094 33.175781 43.140625 C 33.242188 43.164062 33.308594 43.171875 33.386719 43.171875 C 33.480469 43.171875 33.550781 43.15625 33.59375 43.125 C 33.632812 43.09375 33.65625 43.054688 33.65625 42.996094 C 33.65625 42.964844 33.644531 42.941406 33.625 42.917969 C 33.601562 42.886719 33.570312 42.867188 33.527344 42.851562 C 33.496094 42.84375 33.441406 42.828125 33.367188 42.804688 C 33.28125 42.796875 33.214844 42.78125 33.160156 42.757812 C 33.117188 42.738281 33.074219 42.707031 33.03125 42.660156 C 33 42.621094 32.984375 42.5625 32.984375 42.484375 C 32.984375 42.433594 33 42.386719 33.03125 42.339844 C 33.066406 42.289062 33.113281 42.246094 33.175781 42.214844 C 33.242188 42.179688 33.320312 42.164062 33.417969 42.164062 C 33.480469 42.164062 33.542969 42.175781 33.609375 42.199219 C 33.671875 42.210938 33.726562 42.230469 33.769531 42.261719 L 33.722656 42.390625 C 33.664062 42.371094 33.613281 42.351562 33.5625 42.339844 C 33.503906 42.320312 33.457031 42.308594 33.417969 42.308594 C 33.320312 42.308594 33.25 42.324219 33.210938 42.359375 C 33.164062 42.390625 33.144531 42.433594 33.144531 42.484375 C 33.144531 42.515625 33.152344 42.550781 33.175781 42.582031 C 33.195312 42.605469 33.230469 42.621094 33.273438 42.628906 C 33.3125 42.640625 33.367188 42.65625 33.433594 42.675781 C 33.515625 42.703125 33.582031 42.722656 33.625 42.742188 C 33.675781 42.753906 33.722656 42.78125 33.753906 42.820312 C 33.792969 42.867188 33.816406 42.925781 33.816406 42.996094 C 33.816406 43.054688 33.800781 43.105469 33.769531 43.15625 C 33.738281 43.199219 33.6875 43.238281 33.625 43.269531 C 33.5625 43.300781 33.480469 43.316406 33.386719 43.316406 Z M 33.386719 43.316406 " fill-opacity="1" fill-rule="nonzero"/><path fill="rgb(76.858521%, 64.309692%, 35.688782%)" d="M 35.246094 43.011719 L 34.65625 43.011719 L 34.527344 43.300781 L 34.367188 43.300781 L 34.878906 42.179688 L 35.039062 42.179688 L 35.535156 43.300781 L 35.375 43.300781 Z M 35.199219 42.886719 L 34.960938 42.339844 L 34.703125 42.886719 Z M 35.054688 41.878906 L 35.246094 41.878906 L 34.976562 42.085938 L 34.832031 42.085938 Z M 35.054688 41.878906 " fill-opacity="1" fill-rule="nonzero"/><path fill="rgb(76.858521%, 64.309692%, 35.688782%)" d="M 36.9375 43.300781 L 36.699219 42.949219 C 36.667969 42.960938 36.640625 42.964844 36.632812 42.964844 L 36.363281 42.964844 L 36.363281 43.300781 L 36.203125 43.300781 L 36.203125 42.179688 L 36.632812 42.179688 C 36.769531 42.179688 36.882812 42.222656 36.96875 42.292969 C 37.054688 42.359375 37.097656 42.449219 37.097656 42.566406 C 37.097656 42.652344 37.074219 42.726562 37.035156 42.789062 C 36.988281 42.851562 36.929688 42.898438 36.859375 42.917969 L 37.113281 43.300781 Z M 36.632812 42.820312 C 36.730469 42.820312 36.800781 42.800781 36.859375 42.757812 C 36.910156 42.71875 36.9375 42.652344 36.9375 42.566406 C 36.9375 42.492188 36.910156 42.433594 36.859375 42.390625 C 36.800781 42.347656 36.730469 42.324219 36.632812 42.324219 L 36.363281 42.324219 L 36.363281 42.820312 Z M 36.632812 42.820312 " fill-opacity="1" fill-rule="nonzero"/><path fill="rgb(76.858521%, 64.309692%, 35.688782%)" d="M 37.851562 42.179688 L 38.011719 42.179688 L 38.011719 43.300781 L 37.851562 43.300781 Z M 37.851562 42.179688 " fill-opacity="1" fill-rule="nonzero"/><path fill="rgb(76.858521%, 64.309692%, 35.688782%)" d="M 39.535156 43.011719 L 38.945312 43.011719 L 38.816406 43.300781 L 38.65625 43.300781 L 39.167969 42.179688 L 39.328125 42.179688 L 39.824219 43.300781 L 39.664062 43.300781 Z M 39.488281 42.886719 L 39.246094 42.339844 L 38.992188 42.886719 Z M 39.488281 42.886719 " fill-opacity="1" fill-rule="nonzero"/><path fill="rgb(76.858521%, 64.309692%, 35.688782%)" d="M 40.488281 42.179688 L 40.648438 42.179688 L 40.648438 43.15625 L 41.242188 43.15625 L 41.242188 43.300781 L 40.488281 43.300781 Z M 40.488281 42.179688 " fill-opacity="1" fill-rule="nonzero"/></svg>